<svg width="16" height="15" viewBox="0 0 16 15" fill="none" xmlns="http://www.w3.org/2000/svg">
<mask id="path-1-inside-1_161_4" fill="white">
<path d="M1.38991 0L0.171875 1.21803L6.45384 7.5L0.171875 13.782L1.38991 15L7.67188 8.71803L13.9538 15L15.1719 13.782L8.88991 7.5L15.1719 1.21803L13.9538 0L7.67188 6.28197L1.38991 0Z"/>
</mask>
<path d="M1.38991 0L0.171875 1.21803L6.45384 7.5L0.171875 13.782L1.38991 15L7.67188 8.71803L13.9538 15L15.1719 13.782L8.88991 7.5L15.1719 1.21803L13.9538 0L7.67188 6.28197L1.38991 0Z" fill="#001F3F"/>
<path d="M1.38991 0L4.92544 -3.53553L1.38991 -7.07107L-2.14562 -3.53553L1.38991 0ZM0.171875 1.21803L-3.36366 -2.3175L-6.89919 1.21804L-3.36366 4.75357L0.171875 1.21803ZM6.45384 7.5L9.98937 11.0355L13.5249 7.5L9.98937 3.96447L6.45384 7.5ZM0.171875 13.782L-3.36366 10.2464L-6.89919 13.782L-3.36366 17.3175L0.171875 13.782ZM1.38991 15L-2.14562 18.5355L1.38991 22.0711L4.92544 18.5355L1.38991 15ZM7.67188 8.71803L11.2074 5.1825L7.67188 1.64697L4.13634 5.1825L7.67188 8.71803ZM13.9538 15L10.4183 18.5355L13.9538 22.0711L17.4894 18.5355L13.9538 15ZM15.1719 13.782L18.7074 17.3175L22.2429 13.782L18.7074 10.2464L15.1719 13.782ZM8.88991 7.5L5.35438 3.96447L1.81884 7.5L5.35438 11.0355L8.88991 7.5ZM15.1719 1.21803L18.7074 4.75357L22.2429 1.21804L18.7074 -2.3175L15.1719 1.21803ZM13.9538 0L17.4894 -3.53553L13.9538 -7.07107L10.4183 -3.53553L13.9538 0ZM7.67188 6.28197L4.13634 9.8175L7.67188 13.353L11.2074 9.8175L7.67188 6.28197ZM-2.14562 -3.53553L-3.36366 -2.3175L3.70741 4.75357L4.92544 3.53553L-2.14562 -3.53553ZM-3.36366 4.75357L2.91831 11.0355L9.98937 3.96447L3.70741 -2.3175L-3.36366 4.75357ZM2.91831 3.96447L-3.36366 10.2464L3.70741 17.3175L9.98937 11.0355L2.91831 3.96447ZM-3.36366 17.3175L-2.14562 18.5355L4.92544 11.4645L3.70741 10.2464L-3.36366 17.3175ZM4.92544 18.5355L11.2074 12.2536L4.13634 5.1825L-2.14562 11.4645L4.92544 18.5355ZM4.13634 12.2536L10.4183 18.5355L17.4894 11.4645L11.2074 5.1825L4.13634 12.2536ZM17.4894 18.5355L18.7074 17.3175L11.6363 10.2464L10.4183 11.4645L17.4894 18.5355ZM18.7074 10.2464L12.4254 3.96447L5.35438 11.0355L11.6363 17.3175L18.7074 10.2464ZM12.4254 11.0355L18.7074 4.75357L11.6363 -2.3175L5.35438 3.96447L12.4254 11.0355ZM18.7074 -2.3175L17.4894 -3.53553L10.4183 3.53553L11.6363 4.75357L18.7074 -2.3175ZM10.4183 -3.53553L4.13634 2.74643L11.2074 9.8175L17.4894 3.53553L10.4183 -3.53553ZM11.2074 2.74643L4.92544 -3.53553L-2.14562 3.53553L4.13634 9.8175L11.2074 2.74643Z" fill="#001F3F" mask="url(#path-1-inside-1_161_4)"/>
</svg>
